<svg t="1722772917501" class="icon" width="1em" height="1em" viewBox="0 0 1024 1024" version="1.1" xmlns="http://www.w3.org/2000/svg" p-id="1447">
  <path d="M426.666667 768a42.666667 42.666667 0 0 1-42.666667 42.666667H341.333333a42.666667 42.666667 0 0 1-42.666666-42.666667V256a42.666667 42.666667 0 0 1 42.666666-42.666667h42.666667a42.666667 42.666667 0 0 1 42.666667 42.666667v512z m298.666666 0a42.666667 42.666667 0 0 1-42.666666 42.666667h-42.666667a42.666667 42.666667 0 0 1-42.666667-42.666667V256a42.666667 42.666667 0 0 1 42.666667-42.666667h42.666667a42.666667 42.666667 0 0 1 42.666666 42.666667v512z"
      fill="currentColor" p-id="1448">
  </path>
</svg>