<svg t="1723947508214" class="icon" viewBox="0 0 1024 1024" version="1.1"
  xmlns="http://www.w3.org/2000/svg" p-id="6296" width="1em" height="1em">
  <path d="M623.786667 631.125333m-228.394667 0a228.394667 228.394667 0 1 0 456.789333 0 228.394667 228.394667 0 1 0-456.789333 0Z" fill="#ffcfdf" p-id="6297"></path>
  <path d="M509.44 154.88a357.12 357.12 0 1 0 0 714.24 357.12 357.12 0 0 0 0-714.24zM66.986667 512c0-244.352 198.101333-442.453333 442.453333-442.453333 244.352 0 442.453333 198.101333 442.453333 442.453333 0 244.352-198.101333 442.453333-442.453333 442.453333-244.352 0-442.453333-198.101333-442.453333-442.453333z m288.554666-155.136a38.4 38.4 0 0 1 54.314667 0l100.864 100.693333 100.864-100.693333a38.4 38.4 0 1 1 54.272 54.314667l-100.778667 100.608 100.778667 100.608a38.4 38.4 0 0 1-54.272 54.357333l-100.864-100.693333-100.864 100.693333a38.4 38.4 0 0 1-54.272-54.357333l100.778667-100.608-100.778667-100.608a38.4 38.4 0 0 1-0.042667-54.314667z" fill="#999" p-id="6298"></path>
</svg>